<?xml version="1.0" encoding="UTF-8"?>
<svg width="200px" height="200px" viewBox="0 0 200 200" version="1.1" xmlns="http://www.w3.org/2000/svg" xmlns:xlink="http://www.w3.org/1999/xlink">
    <title>illu-behandeling</title>
    <g id="illu-behandeling" stroke="none" fill="none" fill-rule="evenodd">
        <path d="M91.7767256,16.0616246 C126.735236,12.0888847 160.487715,20.2964622 170.597294,23.7540301 C219.710544,40.5512081 181.289266,117.250373 170.572683,137.376793 C167.845929,142.497809 142.228814,182.728258 109.916802,185.562724 C77.6047908,188.397191 59.8463777,176.839023 49.8277986,168.555925 C13.4269811,138.460684 -15.8010136,94.3817555 24.3106358,49.7711947 C48.7852176,22.5515507 56.818215,20.0343646 91.7767256,16.0616246 Z M130.40679,53.0318583 L129.899902,53.0344718 C117.09781,53.1668787 107.265907,58.3290428 100.734675,68.2617741 L100.569,68.515 L100.486804,68.3613716 C94.941791,58.2604702 85.6163721,53.0318583 72.9204881,53.0318583 C59.2943032,53.0318583 44.9555514,69.1320341 44.0774296,87.269648 C42.975532,110.029356 60.8944724,131.963853 99.3277262,148.640231 C100.385897,149.099377 101.591486,149.075352 102.630525,148.574415 C137.349643,131.835752 154.964794,109.914968 155.928588,87.633018 C156.733819,69.016882 144.624924,53.0318583 130.40679,53.0318583 Z M130.40679,60.9681417 C139.641928,60.9681417 148.625304,72.8271494 147.999719,87.2900589 L147.970558,87.8611595 C146.883332,106.33132 131.785486,125.231317 101.101807,140.486641 L100.818,140.626 L100.369269,140.426127 C66.1743966,125.104279 51.1035126,106.261851 52.0044283,87.6534289 C52.6902603,73.4875622 63.8400058,60.9681417 72.9204881,60.9681417 C85.2493415,60.9681417 92.7859292,66.7969037 96.3370137,79.1556688 C97.3831761,82.7966059 102.449416,83.0411526 103.841393,79.517904 C108.795988,66.9772675 117.429097,60.9681417 130.40679,60.9681417 Z M128.641005,82.0383721 C127.005343,80.5797851 124.496959,80.7233328 123.038372,82.3589947 L97.419,111.087 L81.9218211,94.2219981 C80.4389483,92.6083208 77.9286985,92.5022829 76.3150213,93.9851557 C74.7013441,95.4680285 74.5953061,97.9782782 76.0781789,99.5919554 L94.5424646,119.684979 C96.1306495,121.413258 98.8637394,121.39283 100.425914,119.641005 L128.961628,87.6410053 C130.420215,86.0053433 130.276667,83.496959 128.641005,82.0383721 Z" id="Path-4" fill="#FFE97E"></path>
    </g>
</svg>