<?xml version="1.0" encoding="UTF-8"?>
<svg width="200px" height="200px" viewBox="0 0 200 200" version="1.1" xmlns="http://www.w3.org/2000/svg" xmlns:xlink="http://www.w3.org/1999/xlink">
    <title>illu-diagnostiek</title>
    <g id="illu-diagnostiek" stroke="none" fill="none" fill-rule="evenodd">
        <path d="M115.088251,10.0477617 C116.004721,10.0458513 116.918133,10.0440172 117.827998,10.0429937 L120.546471,10.0430886 C121.899901,10.0450859 123.244259,10.0505585 124.5779,10.0619839 L125.907909,10.0754853 C144.47631,10.2948546 160.836941,11.8428411 170.480878,21.5177569 C181.961756,33.0355138 185.01917,103.396877 182.151177,140.48733 C180.560323,161.061113 182.961327,167.312147 165.719284,178.08811 C146.8747,189.865633 111.364697,181.494528 89.266706,180.62177 C79.4091538,180.232447 69.5156073,181.217668 59.6710262,180.579601 C56.3700549,180.365652 52.8025626,179.940909 50.0670137,178.081082 C26.1809944,161.841611 19.0263038,123.984302 28.6029419,64.5091541 C29.5084585,6.85411178 59.1492722,10.1643719 115.088251,10.0477617 Z M76,107 L65,107 C58.9248678,107 54,111.924868 54,118 L54,129 C54,135.075132 58.9248678,140 65,140 L76,140 C82.0751322,140 87,135.075132 87,129 L87,118 C87,111.924868 82.0751322,107 76,107 Z M76,114 C78.209139,114 80,115.790861 80,118 L80,129 C80,131.209139 78.209139,133 76,133 L65,133 C62.790861,133 61,131.209139 61,129 L61,118 C61,115.790861 62.790861,114 65,114 Z M145.566038,120 L100.433962,120 C98.5009656,120 96.9339623,121.567003 96.9339623,123.5 C96.9339623,125.432997 98.5009656,127 100.433962,127 L145.566038,127 C147.499034,127 149.066038,125.432997 149.066038,123.5 C149.066038,121.567003 147.499034,120 145.566038,120 Z M76,61 L65,61 C58.9248678,61 54,65.9248678 54,72 L54,83 C54,89.0751322 58.9248678,94 65,94 L76,94 C82.0751322,94 87,89.0751322 87,83 L87,72 C87,65.9248678 82.0751322,61 76,61 Z M76,68 C78.209139,68 80,69.790861 80,72 L80,83 C80,85.209139 78.209139,87 76,87 L65,87 C62.790861,87 61,85.209139 61,83 L61,72 C61,69.790861 62.790861,68 65,68 Z M145.566038,74 L100.433962,74 C98.5009656,74 96.9339623,75.5670034 96.9339623,77.5 C96.9339623,79.4329966 98.5009656,81 100.433962,81 L145.566038,81 C147.499034,81 149.066038,79.4329966 149.066038,77.5 C149.066038,75.5670034 147.499034,74 145.566038,74 Z" id="Path-5" fill="#D4F28E"></path>
    </g>
</svg>