<?xml version="1.0" encoding="UTF-8"?>
<svg width="200px" height="200px" viewBox="0 0 200 200" version="1.1" xmlns="http://www.w3.org/2000/svg" xmlns:xlink="http://www.w3.org/1999/xlink">
    <title>illu-samenwerking</title>
    <g id="illu-samenwerking" stroke="none" fill="none" fill-rule="evenodd">
        <path d="M156.761715,23.2754185 C162.134696,24.8452356 169.13949,24.5367142 172.770142,28.6712475 L176.002765,30.4912542 C181.987627,37.3067268 182.974748,55.3654926 183.027276,59.3810282 C183.41134,88.7410911 180.93657,118.066342 180.536371,147.436123 C180.376279,159.184924 169.425359,177.056476 163.056406,178.961509 C130.830415,188.600703 64.8685498,185.46776 39.268746,177.141502 C16.1124753,169.609996 10.376279,131.384732 15.3512994,81.753517 L16.2120102,73.1217011 C16.2344865,64.6975618 15.1834109,56.2085848 16.2794392,47.8492847 C18.0656705,34.2258729 33.0114141,19.0480261 47.1856985,18.2156489 C51.6201059,17.9552408 55.9715617,17.6196195 60.2883313,17.2624374 L62.2783992,17.0962484 C65.2603341,16.8452548 68.229203,16.5878833 71.2010211,16.3419366 L73.1828459,16.1798601 C97.6350756,14.2066104 122.52729,13.2731897 156.761715,23.2754185 Z M125.5,48.5 L71.5,48.5 C58.245166,48.5 47.5,59.245166 47.5,72.5 L47.5,126.5 C47.5,139.754834 58.245166,150.5 71.5,150.5 L125.5,150.5 C138.754834,150.5 149.5,139.754834 149.5,126.5 L149.5,72.5 C149.5,59.245166 138.754834,48.5 125.5,48.5 Z M96.703,101.800904 L96.6999123,101.821009 C96.5545237,102.574712 96.2433389,103.69225 95.6418525,105.718331 C95.4685934,106.301947 95.3460743,106.721906 95.2269207,107.144942 C93.9652088,111.624451 93.6908095,114.481721 95.0586471,117.18314 C95.8700583,118.785642 97.0862213,119.315868 98.8259206,119.618464 C99.5619631,119.746488 100.269246,119.806717 101.673715,119.889634 C102.855625,119.959412 103.371815,119.99148 103.839383,120.031843 L104.053979,120.051228 C104.161797,120.061383 104.272082,120.072356 104.392417,120.084713 C106.167848,120.267032 107.335158,120.581789 107.82549,120.944523 L107.852502,120.962882 L107.863,120.966904 L107.858249,120.944186 L107.866523,120.981159 C107.88668,121.120881 107.865197,121.388658 107.749721,121.811305 L107.701909,121.97711 C107.038409,124.168887 106.344651,125.672843 105.673507,126.563487 C105.292991,127.068451 105.059275,127.232031 104.884324,127.273691 C104.606809,127.339773 104.093171,127.238815 102.855734,126.789064 C100.911464,126.082412 100.381819,125.922396 99.2213958,125.873766 C97.1259697,125.785952 95.2824571,126.731393 94.0881973,128.623071 C92.5112746,131.120877 91.9379799,135.577613 92.0620756,143.499198 L71.5,143.5 C62.1111593,143.5 54.5,135.888841 54.5,126.5 L54.498864,103.241275 C57.1699437,103.063456 60.043408,103.055513 62.7145296,103.213198 L63.134,103.240904 L63.1459856,103.260966 C63.1588311,103.284454 63.1725848,103.310202 63.1871536,103.33828 C63.5096866,103.959872 63.7917393,104.876499 64.2551522,106.754774 C64.2872193,106.884746 64.4034773,107.357958 64.4273556,107.454856 C64.4971452,107.738064 64.5532467,107.963421 64.6088898,108.183154 C65.301569,110.918514 65.9237325,112.676814 66.9666404,114.29734 C68.5356675,116.735378 70.8420652,118.215684 73.8197094,118.367043 C79.9287255,118.677575 82.39304,115.995582 84.0938374,110.156331 C84.4610974,108.895437 84.5708681,108.518363 84.6748553,108.203701 L84.714071,108.087024 C84.7473441,107.989557 84.7831251,107.888159 84.8290953,107.757761 L84.9048195,107.548175 C86.3398728,103.673147 89.0024644,101.881861 96.5307169,101.802612 L96.703,101.800904 Z M118.285561,82.8721274 C120.597399,82.4288693 122.294183,82.2660998 123.43559,82.3411229 C124.109504,82.3854183 124.342365,82.4687674 124.346489,82.4726577 C124.390823,82.5144822 124.482338,83.1011828 124.491317,84.998729 L124.491821,85.4797005 C124.491416,85.6486752 124.490417,85.8264315 124.488757,86.0133616 C124.44279,91.1887846 124.755601,94.0941686 126.295609,97.8463918 C126.988161,99.5337938 128.35573,100.579954 130.032931,101.029452 C131.016835,101.293143 131.96615,101.34376 133.239514,101.295336 C133.445107,101.287518 133.620275,101.279048 133.940892,101.262284 C134.408581,101.23783 134.668126,101.226255 134.861417,101.223522 L135.049627,101.223795 L135.084598,101.224565 C137.267375,101.27971 138.981599,101.173404 142.49804,100.829069 L142.5,126.5 C142.5,135.888841 134.888841,143.5 125.5,143.5 L99.063612,143.498354 C99.0108574,140.165313 99.091196,137.570771 99.2946993,135.635662 L99.3275141,135.338514 C99.4396154,134.370997 99.5780836,133.633006 99.7183861,133.117574 L99.722,133.101904 L99.8079094,133.13248 C99.9878622,133.195778 100.204091,133.273323 100.464593,133.368003 C102.938404,134.26712 104.46979,134.56812 106.505836,134.083294 C110.1267,133.221089 112.609045,129.926887 114.401652,124.005274 C115.493556,120.398329 114.633943,117.274 111.988569,115.317021 C110.224275,114.011843 108.037615,113.422227 105.107487,113.121332 C104.915258,113.101592 104.745932,113.084901 104.579563,113.069741 L104.329736,113.047961 C103.824547,113.005939 103.256227,112.970874 102.086263,112.901802 L101.853215,112.887817 C101.628682,112.874103 101.42925,112.861159 101.250952,112.848606 L101.187,112.843904 L101.195334,112.732163 C101.266367,111.878712 101.510497,110.6555 101.964752,109.04274 C102.073217,108.657648 102.187664,108.265361 102.352386,107.710499 C103.288945,104.55574 103.649181,103.225098 103.764195,101.914943 C107.606562,101.29758 110.266399,99.9477279 111.930249,97.7137315 C113.685382,95.3571742 113.908718,93.3938934 113.709266,89.1104539 C113.699308,88.8965159 113.695076,88.8044219 113.689926,88.6878311 C113.50422,84.4841147 113.941568,83.7050185 118.285561,82.8721274 Z M93.2451897,55.5004515 C93.3400279,59.830539 93.2184994,62.7912276 92.9867213,64.4774059 L92.9749377,64.5549275 L92.8536327,64.4921237 C88.6052393,62.2769718 85.2434273,62.0429034 81.8804265,65.6152334 C80.3288684,67.2633679 79.0211228,69.6834888 77.8591507,73.0069797 C76.5037409,76.883744 77.5000295,80.1697678 80.6924444,81.8572187 C82.4880252,82.8063292 84.0338186,83.0398618 87.9018847,83.3089605 C88.0584461,83.3198497 88.0584461,83.3198497 88.2136021,83.3306968 C90.3984685,83.4838707 91.4636159,83.6198114 92.2729922,83.8789481 L92.3963113,83.9203868 C92.5113651,83.9610193 92.601766,83.9989318 92.6688034,84.0314126 L92.6909377,84.0429275 L92.7108641,84.1306874 C93.0172261,85.5604722 93.1318925,86.9292098 93.1420754,89.1990376 L93.1421803,89.8828598 C93.1399617,90.4751743 93.1321417,91.1254515 93.1199484,91.8472393 C93.1037932,92.8035473 93.0939732,93.5416431 93.092064,94.1724477 L93.0921399,94.6271672 C93.0925978,94.7518805 93.0934343,94.8729667 93.0946648,94.9915054 C84.7312985,95.8148985 80.3744339,99.3399659 78.2273283,105.430386 C78.0662647,105.887255 77.9162362,106.354689 77.7543255,106.894006 C77.6929038,107.098598 77.6320892,107.305547 77.5556535,107.568919 C77.5415444,107.617535 77.4105731,108.070206 77.3731207,108.198789 C76.4726423,111.290351 76.2948741,111.483822 74.1750732,111.376069 C73.0562489,111.319197 72.3435545,110.211774 71.3946965,106.464775 C71.343296,106.261796 71.290545,106.049897 71.2240302,105.779979 C71.2010327,105.686655 71.0844589,105.212157 71.0513581,105.077995 C70.4526513,102.651357 70.0675282,101.399767 69.4005123,100.11428 C68.2586001,97.9135631 66.4951925,96.4647789 64.0394283,96.2855305 C60.9793331,96.0621714 57.6443869,96.0400652 54.4990814,96.2274295 L54.5,72.5 C54.5,63.1111593 62.1111593,55.5 71.5,55.5 Z M125.5,55.5 C134.888841,55.5 142.5,63.1111593 142.5,72.5 L142.499249,93.794186 L142.415457,93.8031266 C139.578991,94.0858017 137.987079,94.2143617 136.517378,94.2347461 L136.308131,94.2369272 L135.891716,94.2369932 C135.683474,94.2356238 135.474455,94.2321807 135.261385,94.2267978 C134.90999,94.2179204 134.635541,94.2218499 134.179183,94.2420542 L133.798762,94.2603132 L133.575387,94.2718329 C133.286544,94.2869354 133.136173,94.2942066 132.97351,94.3003924 L132.775076,94.3067241 C132.712048,94.3083233 132.652128,94.3094232 132.595288,94.3100607 L132.436984,94.3097882 L132.355495,94.0742164 C131.621723,91.8753841 131.455727,89.7633272 131.488481,86.0755315 C131.532645,81.1030415 131.281003,79.3912565 129.150037,77.3809069 C126.709581,75.0785859 123.023083,74.8362778 116.967432,75.9973519 C108.67158,77.587949 106.373589,81.6816181 106.696746,88.9967647 C106.702221,89.1206896 106.706745,89.219151 106.716842,89.4360457 C106.839627,92.0729769 106.738021,92.966165 106.316232,93.5324868 C105.699534,94.3605058 103.919543,95.0405869 100.316873,95.2511738 C100.245019,95.2227247 100.172397,95.1961282 100.098775,95.1707814 L100.095063,94.9568783 L100.092812,94.6867366 L100.092934,94.0212112 C100.095736,93.4651618 100.104723,92.8076036 100.11895,91.9654751 C100.199283,87.2101269 100.106819,85.0548878 99.4738717,82.29624 C98.8738881,79.6812621 97.0022544,78.0430823 94.4074405,77.212305 C92.8748355,76.7216133 91.4611597,76.5411913 88.7031479,76.347836 C88.544642,76.3367548 88.544642,76.3367548 88.3876956,76.3258389 L88.0798181,76.3040053 C86.0736855,76.1588834 84.9875078,76.0213774 84.3576865,75.8265051 L84.3179377,75.8129275 L84.3238038,75.791471 C84.3572832,75.6543968 84.4043756,75.4961482 84.4669335,75.317219 C85.3324987,72.8415159 86.1963025,71.2429561 86.9772511,70.4133975 C87.6013863,69.7504131 87.8281804,69.7662038 89.6172798,70.6990569 C89.7060255,70.7453298 90.0420346,70.9221794 90.2095106,71.0099571 L90.2772793,71.0454065 C90.5613976,71.1934801 90.7915391,71.3096197 91.0207905,71.4187603 C91.7006922,71.7424435 92.3014615,71.9697757 92.945334,72.1094665 C95.1208291,72.5814493 97.2023041,71.808276 98.482866,69.8108241 C99.9532369,67.5173034 100.423389,63.3397969 100.248596,55.50101 Z" id="Path-9" fill="#D2EEF0"></path>
    </g>
</svg>