<?xml version="1.0" encoding="UTF-8"?>
<svg width="200px" height="200px" viewBox="0 0 200 200" version="1.1" xmlns="http://www.w3.org/2000/svg" xmlns:xlink="http://www.w3.org/1999/xlink">
    <title>samenwerking</title>
    <g id="samenwerking" stroke="none" stroke-width="1" fill="none" fill-rule="evenodd">
        <path d="M16.2120102,73.1217011 C16.2344865,64.6975618 15.1834109,56.2085848 16.2794392,47.8492847 C18.0656705,34.2258729 33.0114141,19.0480261 47.1856985,18.2156489 C81.2965244,16.2125091 110.498978,9.75889314 156.761715,23.2754185 C162.134696,24.8452356 169.13949,24.5367142 172.770142,28.6712475 L176.002765,30.4912542 C181.987627,37.3067268 182.974748,55.3654926 183.027276,59.3810282 C183.41134,88.7410911 180.93657,118.066342 180.536371,147.436123 C180.376279,159.184924 169.425359,177.056476 163.056406,178.961509 C130.830415,188.600703 64.8685498,185.46776 39.268746,177.141502 C16.1124753,169.609996 10.376279,131.384732 15.3512994,81.753517 L16.2120102,73.1217011 Z" id="Path-5" fill="#D2EEF0"></path>
        <rect id="Rectangle" stroke="#FFFFFF" stroke-width="7" x="51" y="52" width="95" height="95" rx="24"></rect>
        <path d="M51.5,100 C55.4789948,99.5340569 60,99.5 63.7846379,99.7762442 C69.08741,100.163298 66.3225407,114.481429 73.9973913,114.871556 C86.031707,115.483282 74,98 97.82784,98.304845 C104.385177,98.3887373 95.5760625,110.457075 98.181183,115.602074 C99.1419963,117.499639 113.677239,114.318374 111.051781,122.991192 C104.778102,143.715371 94.6745821,112.671216 95.6083069,145.533648" id="Path-6" stroke="#FFFFFF" stroke-width="7"></path>
        <path d="M99.5549836,98.7898553 C120.521578,98.063641 101.075342,82.608159 117.626496,79.4347396 C133.698698,76.3531518 124.959473,85.3728597 129.533507,96.5174763 C130.29049,98.3618626 133.2547,97.6772187 135.172991,97.7256815 C138.973976,97.8217075 142.760986,97.2068924 146.554984,96.9474978" id="Path-7" stroke="#FFFFFF" stroke-width="7"></path>
        <path d="M96.6863029,53.3629275 C97.8045364,86.1958755 88.6266347,52.8146145 81.1630421,74.1620994 C77.9756622,83.2786936 94.6466682,76.908108 96.0625126,83.0789462 C97.0489718,87.3783455 96.4424513,91.9349337 96.6324207,96.3629275" id="Path-8" stroke="#FFFFFF" stroke-width="7"></path>
    </g>
</svg>