<?xml version="1.0" encoding="UTF-8"?>
<svg width="200px" height="200px" viewBox="0 0 200 200" version="1.1" xmlns="http://www.w3.org/2000/svg" xmlns:xlink="http://www.w3.org/1999/xlink">
    <title>behandeling</title>
    <g id="behandeling" stroke="none" stroke-width="1" fill="none" fill-rule="evenodd">
        <path d="M91.7767256,16.0616246 C56.818215,20.0343646 48.7852176,22.5515507 24.3106358,49.7711947 C-15.8010136,94.3817555 13.4269811,138.460684 49.8277986,168.555925 C59.8463777,176.839023 77.6047908,188.397191 109.916802,185.562724 C142.228814,182.728258 167.845929,142.497809 170.572683,137.376793 C181.289266,117.250373 219.710544,40.5512081 170.597294,23.7540301 C160.487715,20.2964622 126.735236,12.0888847 91.7767256,16.0616246 Z" id="Path" fill="#FFE97E"></path>
        <path d="M100.150842,78.0598291 C96.1167153,64.019943 87.0399307,57 72.9204881,57 C52.4631855,57 17.7033823,108.897436 100.90724,145 C175.790713,108.897436 152.342353,57 130.40679,57 C115.783082,57 105.697766,64.019943 100.150842,78.0598291 Z" id="Path-2" stroke="#FFFFFF" stroke-width="7.93628349" stroke-linejoin="round"></path>
        <polyline id="Path-3" stroke="#FFFFFF" stroke-width="7.93628349" stroke-linecap="round" stroke-linejoin="round" points="79 96.9069767 97.4642857 117 126 85"></polyline>
    </g>
</svg>